<svg xmlns="http://www.w3.org/2000/svg" width="31" height="27" viewBox="0 0 31 27"><g><g><path fill="#fff" d="M28.22 2.584C26.667.918 24.536 0 22.22 0c-1.732 0-3.318.542-4.714 1.61A9.586 9.586 0 0 0 15.6 3.577a9.58 9.58 0 0 0-1.906-1.969C12.298.542 10.712 0 8.98 0c-2.316 0-4.447.918-6 2.584C1.445 4.23.6 6.48.6 8.918c0 2.51.945 4.807 2.975 7.23 1.816 2.167 4.426 4.367 7.449 6.914 1.032.87 2.202 1.856 3.416 2.907.321.278.733.431 1.16.431a1.77 1.77 0 0 0 1.16-.43c1.214-1.051 2.384-2.038 3.417-2.908 3.022-2.548 5.632-4.747 7.448-6.915 2.03-2.422 2.975-4.72 2.975-7.23 0-2.437-.845-4.687-2.38-6.333z"/></g></g></svg>