<svg xmlns="http://www.w3.org/2000/svg" viewBox="0 0 32.27 28.85"><defs><linearGradient id="a" x1="-3.01" y1="138.37" x2="13.45" y2="138.37" gradientTransform="rotate(-2.34 -3046.792 -1.73)" gradientUnits="userSpaceOnUse"><stop offset=".16" stop-color="#e55573"/><stop offset=".72" stop-color="#c6435d"/></linearGradient><linearGradient id="b" x1="51.97" y1="45.78" x2="23.98" y2="22.49" gradientTransform="rotate(1.05 823.774 -383.539)" gradientUnits="userSpaceOnUse"><stop offset="0" stop-color="#e55573"/><stop offset="1" stop-color="#f97c95"/></linearGradient><linearGradient id="c" x1="32.02" y1="21" x2="3.38" y2="8.87" gradientTransform="translate(.49 2.25)" gradientUnits="userSpaceOnUse"><stop offset="0" stop-color="#c6435d"/><stop offset=".61" stop-color="#e55573"/><stop offset="1" stop-color="#f97c95"/></linearGradient></defs><path d="M10.57 9.58a25.46 25.46 0 0 1 5.6-7q-.71-.45-1.44-.84A13.47 13.47 0 0 0 8.07 0a8.41 8.41 0 0 0-2.76.55 8.23 8.23 0 0 0-5.1 6.63 17.14 17.14 0 0 0 2.27 11.18 30.07 30.07 0 0 0 8.38 8.83C10.16 26 8.33 23.55 8.07 22a19.7 19.7 0 0 1 2.5-12.42z" fill="url(#a)"/><path d="M21.69 9.81a25.57 25.57 0 0 0-5.52-7.23c.48-.3 1-.59 1.46-.85A13.29 13.29 0 0 1 24.31.06a8.53 8.53 0 0 1 2.74.58c2.69 1.06 4.48 3.48 5 6.81a17.78 17.78 0 0 1-2.4 11.39 24.9 24.9 0 0 1-9.3 8.78c.72-1.2 3.4-3.53 3.67-5.1a20.42 20.42 0 0 0-2.33-12.71z" fill="url(#b)"/><path d="M23.63 24.66a7.44 7.44 0 0 0 1.08-3.17A20.09 20.09 0 0 0 22.19 10a25.08 25.08 0 0 0-6-7.43 25.34 25.34 0 0 0-5.88 6.65c-5 8.19-3.82 16.75 2.65 19.08a10.34 10.34 0 0 0 3.33.58 11 11 0 0 0 2.62-.52 8.77 8.77 0 0 0 4.72-3.7z" fill="url(#c)"/></svg>
